#!OML:ASF E:\acrobat2\Project_11_07_03\Capture day 1\Session 1\Acrobat.ASF
:FULLY-SPECIFIED
:DEGREES
291
root 11.0204 21.283 13.9466 10.5104 2.88311 -1.93596
lowerback -3.25624 0.34333 2.43106
upperback -0.529406 0.379493 -0.446643
thorax 1.30094 0.201166 -1.80516
lowerneck -0.427788 -1.42479 -0.280754
upperneck -9.99074 -1.75192 1.95638
head -3.09413 -0.924378 0.724726
rclavicle -5.46658e-016 -5.96354e-016
rhumerus -29.6351 -27.0818 -74.5471
rradius 11.3245
rwrist 36.4718
rhand 7.6886 -36.1542
rfingers 7.12502
rthumb 32.9309 -63.169
lclavicle -5.46658e-016 -5.96354e-016
lhumerus -15.626 -1.11262 86.1887
lradius 8.20104
lwrist -24.088
lhand 3.96667 -12.5372
lfingers 7.12502
lthumb 29.3839 15.1598
rfemur -7.55202 7.17892 16.9786
rtibia 3.73572
rfoot -25.8267 -8.27844
rtoes 23.0612
lfemur -9.70469 -2.40496 -10.14
ltibia 4.75706
lfoot -13.1858 -16.227
ltoes 16.3571
292
root 11.0084 21.2798 13.9308 10.5474 2.82629 -1.72863
lowerback -3.16356 0.363299 2.25425
upperback -0.559763 0.416476 -0.573772
thorax 1.21942 0.217821 -1.83539
lowerneck -0.545909 -1.41033 -0.294435
upperneck -10.1305 -1.72775 1.99244
head -3.12001 -0.913002 0.738388
rclavicle 7.10655e-015 -9.54166e-015
rhumerus -28.6648 -28.4361 -74.1367
rradius 11.1119
rwrist 38.3491
rhand 7.66716 -36.3268
rfingers 7.12502
rthumb 32.9105 -63.3458
lclavicle 7.10655e-015 -9.54166e-015
lhumerus -14.7377 -1.27929 85.8505
lradius 8.24338
lwrist -24.794
lhand 4.64676 -12.0646
lfingers 7.12502
lthumb 30.033 15.5167
rfemur -7.61094 7.24588 16.7362
rtibia 3.63866
rfoot -25.5382 -8.42367
rtoes 23.507
lfemur -9.74357 -2.59476 -10.3593
ltibia 4.72193
lfoot -12.9432 -16.7258
ltoes 17.4167
293
root 10.9971 21.2781 13.9168 10.5723 2.75842 -1.54291
lowerback -3.09862 0.37871 2.1075
upperback -0.586665 0.445064 -0.692104
thorax 1.15669 0.230743 -1.87374
lowerneck -0.670305 -1.38505 -0.34681
upperneck -10.2291 -1.6875 2.06297
head -3.13039 -0.893168 0.768983
rclavicle 1.19271e-014 9.54166e-015
rhumerus -27.4427 -29.1174 -74.1509
rradius 11.0388
rwrist 39.5101
rhand 7.48938 -36.4452
rfingers 7.12502
rthumb 32.7414 -63.4996
lclavicle 1.19271e-014 9.54166e-015
lhumerus -13.793 -1.42935 85.437
lradius 8.36722
lwrist -25.4647
lhand 5.34878 -11.8247
lfingers 7.12502
lthumb 30.7026 15.633
rfemur -7.6564 7.3198 16.5147
rtibia 3.53447
rfoot -25.1785 -8.59979
rtoes 23.9108
lfemur -9.74667 -2.73896 -10.5575
ltibia 4.6626
lfoot -12.7213 -17.076
ltoes 18.3303
294
root 10.9865 21.2781 13.9046 10.5807 2.67926 -1.39562
lowerback -3.05868 0.390052 2.00528
upperback -0.613129 0.465744 -0.795235
thorax 1.10824 0.240071 -1.92171
lowerneck -0.781541 -1.34967 -0.413734
upperneck -10.2992 -1.63355 2.14152
head -3.13353 -0.866175 0.804237
rclavicle 1.16289e-014 7.15625e-015
rhumerus -25.9765 -29.1931 -74.5147
rradius 11.0664
rwrist 39.9694
rhand 7.16264 -36.5002
rfingers 7.12502
rthumb 32.4305 -63.6188
lclavicle 1.16289e-014 7.15625e-015
lhumerus -12.7942 -1.55299 84.9666
lradius 8.55327
lwrist -26.0419
lhand 6.00635 -11.8389
lfingers 7.12502
lthumb 31.3294 15.4993
rfemur -7.69195 7.36803 16.3396
rtibia 3.45147
rfoot -24.7413 -8.80599
rtoes 24.1084
lfemur -9.70801 -2.8209 -10.7145
ltibia 4.56916
lfoot -12.5227 -17.2667
ltoes 19.0135
295
root 10.9762 21.2795 13.8942 10.5673 2.59034 -1.29763
lowerback -3.03786 0.400627 1.95348
upperback -0.639932 0.483038 -0.880075
thorax 1.07024 0.247979 -1.97927
lowerneck -0.87282 -1.31151 -0.466091
upperneck -10.3407 -1.57741 2.20213
head -3.13094 -0.838003 0.83105
rclavicle 5.66536e-015 4.77083e-015
rhumerus -24.3005 -28.7772 -75.1203
rradius 11.1596
rwrist 39.7837
rhand 6.71533 -36.4999
rfingers 7.12502
rthumb 32.0047 -63.7049
lclavicle 5.66536e-015 4.77083e-015
lhumerus -11.7267 -1.65432 84.4556
lradius 8.76575
lwrist -26.4919
lhand 6.48818 -12.0965
lfingers 7.12502
lthumb 31.7884 15.1516
rfemur -7.71662 7.38017 16.2289
rtibia 3.4052
rfoot -24.2297 -9.03905
rtoes 24.0336
lfemur -9.63699 -2.8361 -10.8117
ltibia 4.46043
lfoot -12.3403 -17.3228
ltoes 19.4824
296
root 10.9662 21.2818 13.8852 10.5226 2.48983 -1.24235
lowerback -3.02834 0.416566 1.94287
upperback -0.665242 0.505728 -0.950615
thorax 1.04061 0.258795 -2.04503
lowerneck -0.930886 -1.28476 -0.486529
upperneck -10.3574 -1.53863 2.23575
head -3.12617 -0.818817 0.844115
rclavicle -1.14301e-015 -3.18055e-015
rhumerus -22.4654 -28.0131 -75.8524
rradius 11.2947
rwrist 39.0653
rhand 6.19224 -36.4803
rfingers 7.12502
rthumb 31.5065 -63.784
lclavicle -1.14301e-015 -3.18055e-015
lhumerus -10.575 -1.74919 83.9145
lradius 8.98547
lwrist -26.7959
lhand 6.74557 -12.533
lfingers 7.12502
lthumb 32.0335 14.6662
rfemur -7.71471 7.36585 16.1756
rtibia 3.38456
rfoot -23.6704 -9.26765
rtoes 23.7876
lfemur -9.53305 -2.80053 -10.8531
ltibia 4.35138
lfoot -12.1865 -17.2586
ltoes 19.7564
297
root 10.9565 21.2846 13.878 10.439 2.38505 -1.21948
lowerback -3.02668 0.437339 1.96125
upperback -0.691913 0.533628 -1.00736
thorax 1.01442 0.272289 -2.11269
lowerneck -0.93307 -1.27425 -0.484752
upperneck -10.3431 -1.52351 2.24909
head -3.12105 -0.811726 0.847588
rclavicle 4.07509e-015 0
rhumerus -20.5239 -26.9929 -76.6153
rradius 11.4617
rwrist 37.9245
rhand 5.63465 -36.4818
rfingers 7.12502
rthumb 30.9751 -63.888
lclavicle 4.07509e-015 0
lhumerus -9.33725 -1.84141 83.3559
lradius 9.20364
lwrist -26.956
lhand 6.82998 -13.0673
lfingers 7.12502
lthumb 32.1138 14.1157
rfemur -7.66529 7.31448 16.1672
rtibia 3.36674
rfoot -23.0884 -9.45735
rtoes 23.4671
lfemur -9.39108 -2.71804 -10.8527
ltibia 4.24715
lfoot -12.0668 -17.0915
ltoes 19.7686
298
root 10.9474 21.2876 13.8734 10.3118 2.29856 -1.20972
lowerback -3.0463 0.451764 1.99079
upperback -0.713364 0.55217 -1.05149
thorax 1.00506 0.281348 -2.17388
lowerneck -0.893753 -1.26873 -0.482992
upperneck -10.2689 -1.51581 2.26598
head -3.10295 -0.80841 0.852141
rclavicle 1.13307e-014 1.39149e-014
rhumerus -18.5013 -25.8344 -77.3312
rradius 11.6441
rwrist 36.5467
rhand 5.05736 -36.5097
rfingers 7.12502
rthumb 30.4247 -64.0192
lclavicle 1.13307e-014 1.39149e-014
lhumerus -7.99847 -1.91954 82.7834
lradius 9.40519
lwrist -26.9886
lhand 6.77605 -13.6193
lfingers 7.12502
lthumb 32.0625 13.5741
rfemur -7.54604 7.19709 16.1829
rtibia 3.33271
rfoot -22.4958 -9.59949
rtoes 23.0456
lfemur -9.21077 -2.58453 -10.8398
ltibia 4.15713
lfoot -11.9393 -16.8614
ltoes 19.5828
299
root 10.9394 21.2907 13.8718 10.1331 2.25162 -1.18343
lowerback -3.08935 0.445349 2.00603
upperback -0.720817 0.542811 -1.08632
thorax 1.02149 0.276853 -2.21837
lowerneck -0.843124 -1.2552 -0.511125
upperneck -10.1138 -1.49685 2.31244
head -3.05911 -0.799078 0.870335
rclavicle 2.03754e-015 -7.55382e-015
rhumerus -16.4018 -24.6558 -77.9543
rradius 11.8257
rwrist 35.1531
rhand 4.45198 -36.5594
rfingers 7.12502
rthumb 29.8471 -64.1743
lclavicle 2.03754e-015 -7.55382e-015
lhumerus -6.55999 -1.96267 82.2011
lradius 9.6004
lwrist -26.9636
lhand 6.58258 -14.1271
lfingers 7.12502
lthumb 31.8783 13.1032
rfemur -7.33279 7.00637 16.1871
rtibia 3.26645
rfoot -21.9204 -9.68276
rtoes 22.5796
lfemur -8.98201 -2.41804 -10.8578
ltibia 4.08094
lfoot -11.7525 -16.595
ltoes 19.4045
300
root 10.9322 21.2939 13.873 9.90659 2.25083 -1.13915
lowerback -3.15114 0.415231 2.00636
upperback -0.716656 0.501857 -1.1112
thorax 1.05838 0.256879 -2.24542
lowerneck -0.783687 -1.2316 -0.594287
upperneck -9.88645 -1.46309 2.40477
head -2.99211 -0.78161 0.911768
rclavicle 8.74653e-015 7.95139e-016
rhumerus -14.231 -23.514 -78.4704
rradius 12.0006
rwrist 33.8894
rhand 3.79162 -36.6344
rfingers 7.12502
rthumb 29.2167 -64.3607
lclavicle 8.74653e-015 7.95139e-016
lhumerus -5.04435 -1.96601 81.6179
lradius 9.81609
lwrist -26.9614
lhand 6.27035 -14.5582
lfingers 7.12502
lthumb 31.5809 12.7309
rfemur -7.02812 6.76632 16.1756
rtibia 3.16496
rfoot -21.3836 -9.71078
rtoes 22.1769
lfemur -8.70438 -2.23649 -10.9082
ltibia 4.01201
lfoot -11.4867 -16.2889
ltoes 19.3767
301
root 10.9257 21.2974 13.8766 9.64391 2.28477 -1.09843
lowerback -3.235 0.369831 2.01063
upperback -0.706321 0.439882 -1.12492
thorax 1.11272 0.226674 -2.26403
lowerneck -0.718752 -1.20186 -0.723899
upperneck -9.59342 -1.42058 2.53463
head -2.90394 -0.75909 0.972386
rclavicle 1.2424e-014 3.57812e-015
rhumerus -11.997 -22.4274 -78.8864
rradius 12.1679
rwrist 32.8402
rhand 3.049 -36.7386
rfingers 7.12502
rthumb 28.5074 -64.586
lclavicle 1.2424e-014 3.57812e-015
lhumerus -3.46501 -1.94119 81.0296
lradius 10.0727
lwrist -27.0007
lhand 5.89786 -14.8857
lfingers 7.12502
lthumb 31.226 12.4725
rfemur -6.65163 6.5234 16.1714
rtibia 3.02983
rfoot -20.8853 -9.70722
rtoes 21.9478
lfemur -8.37881 -2.04818 -10.9589
ltibia 3.9325
lfoot -11.1737 -15.9052
ltoes 19.4379
